# Blender v3.0.1 OBJ File: ''
# www.blender.org
mtllib untitled.mtl
o cube.001_Mesh.007
v -0.600556 0.024608 1.755543
v 0.600485 0.024607 1.755543
v -0.600556 0.396042 1.755543
v 0.600485 0.396042 1.755543
v 0.600487 0.396042 1.800543
v -0.600554 0.396042 1.800543
v -0.600554 0.021931 1.800543
v 0.600487 0.021931 1.800543
vt -1.860369 5.184494
vt -2.635780 5.184494
vt -2.635780 2.669816
vt -1.860369 2.669816
vt 4.350447 4.597169
vt 4.444390 2.082496
vt 4.444390 4.597173
vt 4.350448 2.082492
vt 3.960017 -0.432189
vt 3.179018 2.082488
vt 3.179018 -0.432190
vt 3.960017 2.082488
vt 3.757109 -1.670938
vt 3.851143 -0.894008
vt 3.757108 -0.894008
vt 4.039212 -1.676535
vt 3.945178 -0.899606
vt 3.945178 -1.676535
vt 4.538501 2.082498
vt 4.632610 4.597170
vt 4.538502 4.597174
vt 3.851143 -1.676535
vt 4.039212 -0.894008
vt 4.632610 2.082493
vn -0.0000 0.0000 -1.0000
vn 0.0000 1.0000 -0.0000
vn 0.0000 -0.0000 1.0000
vn -1.0000 -0.0000 0.0000
vn 1.0000 -0.0000 -0.0000
vn -0.0000 -0.9982 -0.0594
usemtl Shelf
s off
f 4/1/1 2/2/1 1/3/1
f 4/1/1 1/3/1 3/4/1
f 6/5/2 4/6/2 3/7/2
f 6/5/2 5/8/2 4/6/2
f 7/9/3 5/10/3 6/11/3
f 7/9/3 8/12/3 5/10/3
f 1/13/4 6/14/4 3/15/4
f 5/16/5 2/17/5 4/18/5
f 2/19/6 7/20/6 1/21/6
f 1/13/4 7/22/4 6/14/4
f 5/16/5 8/23/5 2/17/5
f 2/19/6 8/24/6 7/20/6
o cube_Mesh.003
v -0.600556 0.024608 0.006035
v 0.600485 0.024607 0.006034
v -0.600556 0.396042 0.006035
v 0.600485 0.396042 0.006034
v 0.600487 0.396042 0.051034
v -0.600554 0.396042 0.051035
v -0.600554 0.021931 0.051035
v 0.600487 0.021931 0.051034
vt -0.927814 5.184494
vt -1.703225 5.184494
vt -1.703225 2.669816
vt -0.927814 2.669816
vt 4.256505 4.597169
vt 4.350448 2.082496
vt 4.350448 4.597173
vt 4.256506 2.082492
vt 4.071755 -4.191213
vt 3.290757 -1.676536
vt 3.290757 -4.191213
vt 4.071755 -1.676535
vt 3.851143 -1.670938
vt 3.945178 -0.894008
vt 3.851142 -0.894008
vt 0.874187 3.326833
vt 0.780152 4.103763
vt 0.780152 3.326833
vt 4.444390 2.082498
vt 4.538499 4.597170
vt 4.444391 4.597174
vt 3.945178 -1.676535
vt 0.874187 4.109361
vt 4.538499 2.082493
vn -0.0000 0.0000 -1.0000
vn 0.0000 1.0000 -0.0000
vn 0.0000 -0.0000 1.0000
vn -1.0000 0.0000 0.0000
vn 1.0000 -0.0000 -0.0000
vn -0.0000 -0.9982 -0.0594
usemtl Shelf
s off
f 12/25/7 10/26/7 9/27/7
f 12/25/7 9/27/7 11/28/7
f 14/29/8 12/30/8 11/31/8
f 14/29/8 13/32/8 12/30/8
f 15/33/9 13/34/9 14/35/9
f 15/33/9 16/36/9 13/34/9
f 9/37/10 14/38/10 11/39/10
f 13/40/11 10/41/11 12/42/11
f 10/43/12 15/44/12 9/45/12
f 9/37/10 15/46/10 14/38/10
f 13/40/11 16/47/11 10/41/11
f 10/43/12 16/48/12 15/44/12
o shelf_1_Mesh.001
v 0.600486 0.024607 1.470000
v -0.600555 0.024608 1.470000
v 0.600486 0.396042 1.470000
v -0.600555 0.396042 1.470000
v -0.600553 0.396042 1.500000
v 0.600488 0.396042 1.500000
v 0.600488 0.021931 1.500000
v -0.600553 0.021932 1.500000
vt 1.617021 4.597168
vt 1.617022 2.082491
vt 2.398020 2.082492
vt 2.398020 4.597169
vt 1.124947 4.109360
vt 1.062258 3.332430
vt 1.124947 3.326833
vt 1.062258 4.109360
vt 4.847168 -1.676536
vt 4.071754 -1.676535
vt 4.071755 -4.191213
vt 4.847168 -4.191213
vt 0.654893 5.184493
vt 0.717522 2.669820
vt 0.717522 5.184497
vt 0.654893 2.669816
vt 0.999567 3.326833
vt 0.936877 4.103764
vt 0.936877 3.326833
vt 5.113530 2.082496
vt 5.176407 4.597169
vt 5.113530 4.597173
vt 0.999567 4.109361
vt 5.176407 2.082492
vn 0.0000 -0.0000 1.0000
vn -1.0000 0.0000 0.0001
vn -0.0000 0.0000 -1.0000
vn 0.0000 1.0000 -0.0000
vn 1.0000 0.0000 -0.0001
vn -0.0000 -0.9960 -0.0888
usemtl Shelf
s off
f 22/49/13 21/50/13 24/51/13
f 22/49/13 24/51/13 23/52/13
f 21/53/14 18/54/14 24/55/14
f 21/53/14 20/56/14 18/54/14
f 19/57/15 17/58/15 18/59/15
f 19/57/15 18/59/15 20/60/15
f 21/61/16 19/62/16 20/63/16
f 21/61/16 22/64/16 19/62/16
f 22/65/17 17/66/17 19/67/17
f 17/68/18 24/69/18 18/70/18
f 22/65/17 23/71/17 17/66/17
f 17/68/18 23/72/18 24/69/18
o shelf_4_Mesh.002
v -0.600556 0.024608 0.570000
v 0.600485 0.024607 0.570000
v -0.600556 0.396042 0.570000
v 0.600485 0.396041 0.570000
v 0.600487 0.396041 0.600000
v -0.600554 0.396042 0.600000
v -0.600554 0.021932 0.600000
v 0.600487 0.021931 0.600000
vt -0.927814 2.669817
vt -0.152403 2.669816
vt -0.152403 5.184494
vt -0.927813 5.184494
vt 5.041070 5.191209
vt 5.103698 2.676535
vt 5.103698 5.191213
vt 5.041070 2.676532
vt 3.179019 4.597165
vt 3.960017 2.082489
vt 3.960017 4.597166
vt 3.179018 2.082488
vt 1.187638 3.332430
vt 1.250328 4.109359
vt 1.187638 4.109359
vt 1.375707 4.109360
vt 1.438396 3.332431
vt 1.438396 4.109360
vt -1.860369 2.669819
vt -1.797492 5.184492
vt -1.860369 5.184496
vt 1.250328 3.326833
vt 1.375707 3.326833
vt -1.797492 2.669815
vn -0.0000 0.0000 -1.0000
vn 0.0000 1.0000 0.0000
vn 0.0000 0.0000 1.0000
vn -1.0000 0.0000 0.0001
vn 1.0000 -0.0000 -0.0001
vn -0.0000 -0.9960 -0.0888
vn -0.0000 -0.9960 -0.0889
usemtl Shelf
s off
f 28/73/19 26/74/19 25/75/19
f 28/73/19 25/75/19 27/76/19
f 30/77/20 28/78/20 27/79/20
f 30/77/20 29/80/20 28/78/20
f 31/81/21 29/82/21 30/83/21
f 31/81/21 32/84/21 29/82/21
f 25/85/22 30/86/22 27/87/22
f 29/88/23 26/89/23 28/90/23
f 26/91/24 31/92/24 25/93/24
f 25/85/22 31/94/22 30/86/22
f 29/88/23 32/95/23 26/89/23
f 26/91/25 32/96/25 31/92/25
o shelf_2_Mesh.004
v -0.600555 0.021932 1.200000
v 0.600488 0.021931 1.200000
v -0.600555 0.396042 1.200000
v 0.600486 0.396041 1.200000
v 0.600487 0.396041 1.169999
v -0.600555 0.396042 1.170000
v -0.600555 0.024608 1.170000
v 0.600488 0.024607 1.170000
vt 2.398020 -0.432189
vt 2.398020 2.082492
vt 1.617022 2.082488
vt 1.617021 -0.432189
vt 0.717522 2.669820
vt 0.780152 5.184497
vt 0.717525 5.184497
vt 0.780152 2.669816
vt 3.960017 -0.432189
vt 4.735429 2.082492
vt 3.960017 2.082493
vt 4.735429 -0.432189
vt 4.101904 -1.676535
vt 4.039214 -0.899605
vt 4.039212 -1.676535
vt 1.062257 4.109361
vt 0.999568 3.332430
vt 1.062257 3.326833
vt 5.176407 2.082492
vt 5.113530 -0.432190
vt 5.176407 -0.432190
vt 4.101904 -0.894009
vt 0.999568 4.109361
vt 5.113530 2.082492
vn -0.0000 -0.0000 1.0000
vn 0.0000 1.0000 0.0000
vn -0.0000 0.0000 -1.0000
vn 1.0000 0.0000 0.0001
vn -1.0000 -0.0000 0.0000
vn -0.0000 -0.9960 -0.0888
vn 1.0000 0.0000 0.0000
usemtl Shelf
s off
f 33/97/26 34/98/26 36/99/26
f 33/97/26 36/99/26 35/100/26
f 36/101/27 38/102/27 35/103/27
f 36/101/27 37/104/27 38/102/27
f 37/105/28 39/106/28 38/107/28
f 37/105/28 40/108/28 39/106/28
f 36/109/29 40/110/29 37/111/29
f 35/112/30 39/113/30 33/114/30
f 33/115/31 40/116/31 34/117/31
f 36/109/32 34/118/32 40/110/32
f 35/112/30 38/119/30 39/113/30
f 33/115/31 39/120/31 40/116/31
o shelf_3_Mesh.005
v -0.600556 0.021932 0.900000
v 0.600486 0.021931 0.900000
v -0.600556 0.396042 0.900000
v 0.600485 0.396041 0.900000
v -0.600556 0.396042 0.870000
v 0.600485 0.396041 0.870000
v -0.600556 0.024608 0.870000
v 0.600487 0.024607 0.870000
vt 2.398020 4.597169
vt 2.398020 2.082491
vt 3.179017 2.082492
vt 3.179017 4.597169
vt 4.978440 2.676532
vt 5.041068 2.676532
vt 5.041068 5.191209
vt 4.978440 5.191209
vt -3.411191 5.184494
vt -4.186603 5.184498
vt -4.186602 2.669816
vt -3.411191 2.669816
vt 1.375707 4.109359
vt 1.313017 3.332430
vt 1.375707 3.326833
vt 1.250328 4.109360
vt 1.313018 3.332431
vt 1.313018 4.109360
vt 0.558868 2.669820
vt 0.495991 5.184497
vt 0.495991 2.669816
vt 1.313017 4.109359
vt 1.250328 3.326833
vt 0.558868 5.184497
vn 0.0000 -0.0000 1.0000
vn 0.0000 1.0000 0.0000
vn -0.0000 0.0000 -1.0000
vn -1.0000 -0.0000 0.0000
vn 1.0000 0.0000 0.0000
vn -0.0000 -0.9960 -0.0888
vn 1.0000 0.0000 0.0001
usemtl Shelf
s off
f 41/121/33 42/122/33 44/123/33
f 41/121/33 44/123/33 43/124/33
f 44/125/34 46/126/34 45/127/34
f 44/125/34 45/127/34 43/128/34
f 46/129/35 48/130/35 47/131/35
f 46/129/35 47/131/35 45/132/35
f 43/133/36 47/134/36 41/135/36
f 44/136/37 48/137/37 46/138/37
f 42/139/38 47/140/38 48/141/38
f 43/133/36 45/142/36 47/134/36
f 44/136/39 42/143/39 48/137/39
f 42/139/38 41/144/38 47/140/38
o shelf_5_Mesh.008
v -0.600556 0.024608 0.270000
v 0.600485 0.024607 0.270000
v -0.600556 0.396042 0.270000
v 0.600485 0.396042 0.270000
v 0.600487 0.396042 0.300000
v -0.600554 0.396042 0.300000
v -0.600554 0.021931 0.300000
v 0.600487 0.021931 0.300000
vt -2.635780 5.184494
vt -3.411191 5.184494
vt -3.411191 2.669816
vt -2.635780 2.669816
vt 0.558868 5.184493
vt 0.621496 2.669820
vt 0.621496 5.184497
vt 0.558868 2.669816
vt 3.179017 -0.432189
vt 2.398020 2.082488
vt 2.398019 -0.432190
vt 3.179017 2.082488
vt 0.936877 4.103764
vt 0.874187 3.326834
vt 0.936877 3.326834
vt 1.187637 3.326834
vt 1.124948 4.103764
vt 1.124948 3.326834
vt -1.766103 2.669820
vt -1.703225 5.184494
vt -1.766103 5.184498
vt 0.874188 4.109361
vt 1.187638 4.109361
vt -1.703225 2.669816
vn -0.0000 0.0000 -1.0000
vn 0.0000 1.0000 -0.0000
vn 0.0000 -0.0000 1.0000
vn -1.0000 0.0000 0.0001
vn 1.0000 0.0000 -0.0001
vn -0.0000 -0.9960 -0.0889
usemtl Shelf
s off
f 52/145/40 50/146/40 49/147/40
f 52/145/40 49/147/40 51/148/40
f 54/149/41 52/150/41 51/151/41
f 54/149/41 53/152/41 52/150/41
f 55/153/42 53/154/42 54/155/42
f 55/153/42 56/156/42 53/154/42
f 49/157/43 54/158/43 51/159/43
f 53/160/44 50/161/44 52/162/44
f 50/163/45 55/164/45 49/165/45
f 49/157/43 55/166/43 54/158/43
f 53/160/44 56/167/44 50/161/44
f 50/163/45 56/168/45 55/164/45
o left_upright_Mesh.010
v -0.650000 0.403666 0.004644
v -0.594241 0.403666 0.004644
v -0.650000 0.403666 1.800000
v -0.594241 0.002794 0.004644
v -0.650000 0.002794 0.004644
v -0.650000 0.002794 1.800000
v -0.594241 0.002794 1.800000
v -0.594241 0.403666 1.800000
vt 3.524075 -0.838031
vt 3.524075 -1.676535
vt 3.640592 -1.676535
vt 3.640592 -0.838030
vt 3.757108 -0.838031
vt 3.640592 -0.838030
vt 3.640592 -1.676535
vt 3.757108 -1.676535
vt 4.963828 -0.435865
vt 5.080344 -4.191213
vt 5.080344 -0.435865
vt 4.963827 -4.191213
vt 4.852090 -0.432190
vt 4.968605 3.323159
vt 4.852090 3.323159
vt 1.617019 -0.432189
vt 0.780152 3.326834
vt 0.780152 -0.432189
vt 1.617019 3.326833
vt 4.968607 -0.432190
vt 2.453891 -4.191213
vt 3.290756 -4.191213
vt 3.290756 -0.432191
vt 2.453891 -0.432191
vn 0.0000 -0.0000 1.0000
vn -0.5773 0.5773 -0.5773
vn 0.5773 0.5773 -0.5773
vn 0.5773 -0.5773 -0.5773
vn -0.5773 -0.5773 -0.5773
vn -0.5773 -0.5773 0.5773
vn 0.5773 -0.5773 0.5773
vn -0.5773 0.5773 0.5773
vn 0.5773 0.5773 0.5773
usemtl Shelf
s off
f 59/169/46 62/170/46 63/171/46
f 59/169/46 63/171/46 64/172/46
s 1
f 57/173/47 58/174/48 60/175/49
f 57/173/47 60/175/49 61/176/50
f 60/177/49 62/178/51 61/179/50
f 60/177/49 63/180/52 62/178/51
f 59/181/53 58/182/48 57/183/47
f 61/184/50 59/185/53 57/186/47
f 61/184/50 62/187/51 59/185/53
f 59/181/53 64/188/54 58/182/48
f 64/189/54 63/190/52 60/191/49
f 64/189/54 60/191/49 58/192/48
o back_piece_Mesh.011
v 0.594173 0.037504 1.799999
v -0.594241 0.037504 1.799999
v 0.594173 0.037505 0.004644
v 0.594173 0.002794 1.799999
v -0.594241 0.002794 1.799999
v -0.594241 0.037505 0.004644
v 0.594173 0.037504 1.799999
v 0.594173 0.037505 0.004644
v -0.594241 0.037504 1.799999
v -0.594241 0.037505 0.004644
v 0.594173 0.002794 1.799999
v -0.594241 0.002794 1.799999
v 0.580249 0.036625 1.799999
v 0.580249 0.036626 0.004644
v -0.594241 0.052046 1.799999
v 0.594173 0.052046 1.799999
v 0.594173 0.052047 0.004644
v -0.594241 0.052047 0.004644
v 0.594173 0.037504 1.799999
v 0.594173 0.037504 1.489408
v -0.594241 0.037504 1.799999
v -0.594241 0.037504 1.489408
v 0.594173 0.002794 1.799999
v 0.594173 0.002794 1.489408
v -0.594241 0.002794 1.799999
v -0.594241 0.002794 1.489408
v 0.594173 0.037504 1.489408
v 0.594173 0.037505 0.004644
v -0.594241 0.037504 1.489408
v -0.594241 0.037505 0.004644
v 0.594173 0.002794 1.489408
v 0.594173 0.002795 0.004644
v -0.594241 0.002794 1.489408
v -0.594241 0.002795 0.004644
vt 4.256506 2.082492
vt 4.184044 4.570732
vt 4.184043 2.082492
vt -1.703226 -0.435867
vt -4.186602 -4.191213
vt -1.703225 -4.191213
vt -1.766102 5.158055
vt -1.796460 2.669816
vt -1.766102 2.669816
vt 4.632610 4.570732
vt 4.705071 2.082493
vt 4.705071 4.570732
vt 0.780152 -0.435867
vt -1.703225 -4.191213
vt 0.780152 -4.191213
vt 4.735429 4.570732
vt 5.156240 -0.432193
vt 5.125882 -4.191213
vt 5.156240 -4.191213
vt 5.186597 -0.432193
vt 5.156240 -4.191213
vt 5.186597 -4.191213
vt 1.583319 3.977133
vt 1.510858 3.326834
vt 1.583319 3.326834
vt -0.152403 5.158055
vt 0.495991 2.669816
vt 0.495991 5.158055
vt 1.510858 3.977133
vt 1.438397 3.326834
vt 1.510858 3.326834
vt 4.184043 2.082492
vt 4.111583 4.570732
vt 4.111583 2.082492
vt -1.703226 2.669815
vt -4.186603 -0.435867
vt -1.703225 -0.435867
vt 4.968606 -0.432189
vt 5.041068 2.676532
vt 4.968606 2.676532
vt 0.780152 2.669815
vt -1.703225 -0.435867
vt 0.780152 -0.435867
vt 5.113530 2.676532
vt 5.041068 -0.432190
vt 5.113530 -0.432190
vt 4.039122 2.082492
vt 3.966660 4.570732
vt 3.966660 2.082492
vt 4.039123 4.570732
vt 4.111583 2.082493
vt 4.111583 4.570732
vt 4.256506 4.570732
vt -4.186603 -0.435867
vt -1.796460 5.158055
vt 4.632610 2.082493
vt -1.703225 -0.435867
vt 4.735429 2.082493
vt 5.125882 -0.432193
vt 5.156240 -0.432193
vt 1.510858 3.977133
vt -0.152403 2.669816
vt 1.438397 3.977133
vt 4.184043 4.570732
vt -4.186603 2.669815
vt 5.041068 -0.432189
vt -1.703225 2.669815
vt 5.041068 2.676532
vt 4.039122 4.570732
vt 4.039123 2.082493
vn -0.0000 0.0000 1.0000
vn -0.0000 1.0000 0.0000
vn 0.0000 0.0000 -1.0000
vn -1.0000 -0.0000 0.0000
vn 1.0000 0.0000 0.0000
vn 0.0000 -1.0000 -0.0000
usemtl Shelf
s off
f 69/193/55 65/194/55 66/195/55
f 67/196/56 66/197/56 65/198/56
f 74/199/57 81/200/57 72/201/57
f 76/202/55 71/203/55 73/204/55
f 81/205/56 79/206/56 80/207/56
f 71/203/55 79/208/55 73/204/55
f 73/209/58 82/210/58 74/211/58
f 72/212/59 80/213/59 71/214/59
f 86/215/58 89/216/58 85/217/58
f 90/218/60 87/219/60 89/220/60
f 88/221/59 83/222/59 87/223/59
f 86/224/57 88/225/57 90/226/57
f 92/227/56 93/228/56 91/229/56
f 94/230/58 97/231/58 93/232/58
f 98/233/60 95/234/60 97/235/60
f 96/236/59 91/237/59 95/238/59
f 97/239/55 91/240/55 93/241/55
f 94/242/57 96/243/57 98/244/57
f 69/193/55 68/245/55 65/194/55
f 67/196/56 70/246/56 66/197/56
f 74/199/57 82/247/57 81/200/57
f 76/202/55 75/248/55 71/203/55
f 81/205/56 82/249/56 79/206/56
f 71/203/55 80/250/55 79/208/55
f 73/209/58 79/251/58 82/210/58
f 72/212/59 81/252/59 80/213/59
f 86/215/58 90/253/58 89/216/58
f 90/218/60 88/254/60 87/219/60
f 88/221/59 84/255/59 83/222/59
f 86/224/57 84/256/57 88/225/57
f 92/227/56 94/257/56 93/228/56
f 94/230/58 98/258/58 97/231/58
f 98/233/60 96/259/60 95/234/60
f 96/236/59 92/260/59 91/237/59
f 97/239/55 95/261/55 91/240/55
f 94/242/57 92/262/57 96/243/57
l 77 71
l 72 78
o right_upright_Mesh.012
v 0.650000 0.002793 0.004644
v 0.650000 0.403666 0.004644
v 0.594173 0.002793 0.004644
v 0.650000 0.002794 1.800000
v 0.650000 0.403666 1.800000
v 0.594173 0.002794 1.800000
v 0.594173 0.403666 1.800000
v 0.594173 0.403667 0.004644
v 0.594173 0.024607 1.800000
v 0.594173 0.002794 1.800000
v 0.594173 0.024607 0.009916
v 0.594173 0.002795 0.009916
vt 5.125882 -0.443228
vt 5.080346 -4.191213
vt 5.125882 -4.191213
vt 4.963826 -4.191213
vt 4.963828 -0.435865
vt 4.847168 -0.435865
vt 5.080346 -0.443228
vt 3.524076 -1.676535
vt 3.407417 -0.838030
vt 3.407417 -1.676535
vt 3.524075 -0.838030
vt 3.407416 -1.676534
vt 3.407416 -0.838028
vt 3.290756 -0.838028
vt 3.290756 -1.676535
vt 4.847168 -4.191213
vt 1.617024 -0.432190
vt 1.617022 -4.191213
vt 2.453891 -4.191213
vt 2.453891 -0.432190
vt 4.852089 3.323160
vt 4.735431 -0.432190
vt 4.852090 -0.432190
vt 4.735429 3.323160
vt 1.617022 -0.432190
vt 0.780155 -4.191213
vt 1.617022 -4.191213
vt 0.780152 -0.432190
vn 1.0000 0.0000 0.0000
vn 0.0000 -1.0000 0.0000
vn 0.0000 -0.0000 1.0000
vn 0.5773 0.5773 -0.5773
vn 0.5773 -0.5773 -0.5773
vn -0.5773 -0.5773 -0.5773
vn -0.5773 0.5773 -0.5773
vn 0.5773 -0.5773 0.5773
vn -0.5773 -0.5773 0.5773
vn 0.5773 0.5773 0.5773
vn -0.5773 0.5773 0.5773
usemtl Shelf
s off
f 110/263/61 107/264/61 108/265/61
f 104/266/62 101/267/62 99/268/62
f 110/263/61 109/269/61 107/264/61
f 105/270/63 102/271/63 103/272/63
f 105/270/63 104/273/63 102/271/63
s 1
f 100/274/64 99/275/65 101/276/66
f 100/274/64 101/276/66 106/277/67
f 99/268/65 102/278/68 104/266/69
f 102/279/68 99/280/65 100/281/64
f 102/279/68 100/281/64 103/282/70
f 100/283/64 105/284/71 103/285/70
f 100/283/64 106/286/67 105/284/71
f 106/287/67 104/288/69 105/289/71
f 106/287/67 101/290/66 104/288/69
